<!--?xml version="1.0" standalone="no"?-->
              <svg id="sw-js-blob-svg" viewBox="0 0 100 100" xmlns="http://www.w3.org/2000/svg" version="1.1">
                    <defs> 
                        <linearGradient id="sw-gradient" x1="0" x2="1" y1="1" y2="0">
                            <stop id="stop1" stop-color="rgba(0, 224.767, 255, 1)" offset="0%"></stop>
                            <stop id="stop2" stop-color="rgba(0, 164.301, 255, 1)" offset="100%"></stop>
                        </linearGradient>
                    </defs>
                <path fill="url(#sw-gradient)" d="M25.5,-30.1C33.3,-23.9,39.8,-16.1,42.2,-6.9C44.5,2.3,42.5,12.9,37.3,21.2C32.1,29.5,23.6,35.5,14.9,37.1C6.1,38.6,-2.9,35.6,-11.2,32C-19.5,28.4,-27.2,24.3,-32.3,17.6C-37.4,10.9,-39.8,1.7,-37.3,-5.5C-34.7,-12.7,-27,-17.9,-20,-24.2C-12.9,-30.5,-6.5,-37.9,1.2,-39.3C8.9,-40.8,17.8,-36.3,25.5,-30.1Z" width="100%" height="100%" transform="translate(50 50)" stroke-width="0" style="transition: all 0.3s ease 0s;" stroke="url(#sw-gradient)"></path>
              </svg>