<?xml version="1.0" standalone="no"?><svg xmlns="http://www.w3.org/2000/svg" viewBox="0 0 1440 320"><path fill="#00cba9" fill-opacity="1" d="M0,160L30,133.3C60,107,120,53,180,58.7C240,64,300,128,360,154.7C420,181,480,171,540,186.7C600,203,660,245,720,261.3C780,277,840,267,900,250.7C960,235,1020,213,1080,176C1140,139,1200,85,1260,53.3C1320,21,1380,11,1410,5.3L1440,0L1440,320L1410,320C1380,320,1320,320,1260,320C1200,320,1140,320,1080,320C1020,320,960,320,900,320C840,320,780,320,720,320C660,320,600,320,540,320C480,320,420,320,360,320C300,320,240,320,180,320C120,320,60,320,30,320L0,320Z"></path></svg>